<mxfile host="app.diagrams.net" modified="2021-06-05T03:56:09.290Z" agent="5.0 (Windows NT 10.0; Win64; x64) AppleWebKit/537.36 (KHTML, like Gecko) Chrome/91.0.4472.77 Safari/537.36" etag="GYjDbDpEsflz92LrwNEG" version="14.7.4" type="github">
  <diagram id="C5RBs43oDa-KdzZeNtuy" name="Page-1">
    <mxGraphModel dx="838" dy="547" grid="1" gridSize="10" guides="1" tooltips="1" connect="1" arrows="1" fold="1" page="1" pageScale="1" pageWidth="827" pageHeight="1169" math="0" shadow="0">
      <root>
        <mxCell id="WIyWlLk6GJQsqaUBKTNV-0" />
        <mxCell id="WIyWlLk6GJQsqaUBKTNV-1" parent="WIyWlLk6GJQsqaUBKTNV-0" />
        <mxCell id="2IKahxHPjoitAG6gqW4m-127" value="user" style="shape=table;html=1;whiteSpace=wrap;startSize=30;container=1;collapsible=0;childLayout=tableLayout;fixedRows=1;rowLines=0;fontStyle=1;align=center;rounded=0;shadow=0;sketch=0;" parent="WIyWlLk6GJQsqaUBKTNV-1" vertex="1">
          <mxGeometry x="230" y="30" width="130" height="300" as="geometry" />
        </mxCell>
        <mxCell id="2IKahxHPjoitAG6gqW4m-128" value="" style="shape=partialRectangle;html=1;whiteSpace=wrap;collapsible=0;dropTarget=0;pointerEvents=0;fillColor=none;top=0;left=0;bottom=1;right=0;points=[[0,0.5],[1,0.5]];portConstraint=eastwest;" parent="2IKahxHPjoitAG6gqW4m-127" vertex="1">
          <mxGeometry y="30" width="130" height="30" as="geometry" />
        </mxCell>
        <mxCell id="2IKahxHPjoitAG6gqW4m-129" value="pk" style="shape=partialRectangle;html=1;whiteSpace=wrap;connectable=0;fillColor=none;top=0;left=0;bottom=0;right=0;overflow=hidden;" parent="2IKahxHPjoitAG6gqW4m-128" vertex="1">
          <mxGeometry width="29" height="30" as="geometry" />
        </mxCell>
        <mxCell id="2IKahxHPjoitAG6gqW4m-130" value="id" style="shape=partialRectangle;html=1;whiteSpace=wrap;connectable=0;fillColor=none;top=0;left=0;bottom=0;right=0;align=left;spacingLeft=6;overflow=hidden;" parent="2IKahxHPjoitAG6gqW4m-128" vertex="1">
          <mxGeometry x="29" width="101" height="30" as="geometry" />
        </mxCell>
        <mxCell id="2IKahxHPjoitAG6gqW4m-131" value="" style="shape=partialRectangle;html=1;whiteSpace=wrap;collapsible=0;dropTarget=0;pointerEvents=0;fillColor=none;top=0;left=0;bottom=0;right=0;points=[[0,0.5],[1,0.5]];portConstraint=eastwest;" parent="2IKahxHPjoitAG6gqW4m-127" vertex="1">
          <mxGeometry y="60" width="130" height="30" as="geometry" />
        </mxCell>
        <mxCell id="2IKahxHPjoitAG6gqW4m-132" value="" style="shape=partialRectangle;html=1;whiteSpace=wrap;connectable=0;fillColor=none;top=0;left=0;bottom=0;right=0;overflow=hidden;" parent="2IKahxHPjoitAG6gqW4m-131" vertex="1">
          <mxGeometry width="29" height="30" as="geometry" />
        </mxCell>
        <mxCell id="2IKahxHPjoitAG6gqW4m-133" value="first_name" style="shape=partialRectangle;html=1;whiteSpace=wrap;connectable=0;fillColor=none;top=0;left=0;bottom=0;right=0;align=left;spacingLeft=6;overflow=hidden;" parent="2IKahxHPjoitAG6gqW4m-131" vertex="1">
          <mxGeometry x="29" width="101" height="30" as="geometry" />
        </mxCell>
        <mxCell id="2IKahxHPjoitAG6gqW4m-144" value="" style="shape=partialRectangle;html=1;whiteSpace=wrap;collapsible=0;dropTarget=0;pointerEvents=0;fillColor=none;top=0;left=0;bottom=0;right=0;points=[[0,0.5],[1,0.5]];portConstraint=eastwest;" parent="2IKahxHPjoitAG6gqW4m-127" vertex="1">
          <mxGeometry y="90" width="130" height="30" as="geometry" />
        </mxCell>
        <mxCell id="2IKahxHPjoitAG6gqW4m-145" value="" style="shape=partialRectangle;html=1;whiteSpace=wrap;connectable=0;fillColor=none;top=0;left=0;bottom=0;right=0;overflow=hidden;" parent="2IKahxHPjoitAG6gqW4m-144" vertex="1">
          <mxGeometry width="29" height="30" as="geometry" />
        </mxCell>
        <mxCell id="2IKahxHPjoitAG6gqW4m-146" value="last_name" style="shape=partialRectangle;html=1;whiteSpace=wrap;connectable=0;fillColor=none;top=0;left=0;bottom=0;right=0;align=left;spacingLeft=6;overflow=hidden;" parent="2IKahxHPjoitAG6gqW4m-144" vertex="1">
          <mxGeometry x="29" width="101" height="30" as="geometry" />
        </mxCell>
        <mxCell id="2IKahxHPjoitAG6gqW4m-134" value="" style="shape=partialRectangle;html=1;whiteSpace=wrap;collapsible=0;dropTarget=0;pointerEvents=0;fillColor=none;top=0;left=0;bottom=0;right=0;points=[[0,0.5],[1,0.5]];portConstraint=eastwest;" parent="2IKahxHPjoitAG6gqW4m-127" vertex="1">
          <mxGeometry y="120" width="130" height="30" as="geometry" />
        </mxCell>
        <mxCell id="2IKahxHPjoitAG6gqW4m-135" value="" style="shape=partialRectangle;html=1;whiteSpace=wrap;connectable=0;fillColor=none;top=0;left=0;bottom=0;right=0;overflow=hidden;" parent="2IKahxHPjoitAG6gqW4m-134" vertex="1">
          <mxGeometry width="29" height="30" as="geometry" />
        </mxCell>
        <mxCell id="2IKahxHPjoitAG6gqW4m-136" value="email" style="shape=partialRectangle;html=1;whiteSpace=wrap;connectable=0;fillColor=none;top=0;left=0;bottom=0;right=0;align=left;spacingLeft=6;overflow=hidden;" parent="2IKahxHPjoitAG6gqW4m-134" vertex="1">
          <mxGeometry x="29" width="101" height="30" as="geometry" />
        </mxCell>
        <mxCell id="2IKahxHPjoitAG6gqW4m-138" value="" style="shape=partialRectangle;html=1;whiteSpace=wrap;collapsible=0;dropTarget=0;pointerEvents=0;fillColor=none;top=0;left=0;bottom=0;right=0;points=[[0,0.5],[1,0.5]];portConstraint=eastwest;" parent="2IKahxHPjoitAG6gqW4m-127" vertex="1">
          <mxGeometry y="150" width="130" height="30" as="geometry" />
        </mxCell>
        <mxCell id="2IKahxHPjoitAG6gqW4m-139" value="" style="shape=partialRectangle;html=1;whiteSpace=wrap;connectable=0;fillColor=none;top=0;left=0;bottom=0;right=0;overflow=hidden;" parent="2IKahxHPjoitAG6gqW4m-138" vertex="1">
          <mxGeometry width="29" height="30" as="geometry" />
        </mxCell>
        <mxCell id="2IKahxHPjoitAG6gqW4m-140" value="nickname" style="shape=partialRectangle;html=1;whiteSpace=wrap;connectable=0;fillColor=none;top=0;left=0;bottom=0;right=0;align=left;spacingLeft=6;overflow=hidden;" parent="2IKahxHPjoitAG6gqW4m-138" vertex="1">
          <mxGeometry x="29" width="101" height="30" as="geometry" />
        </mxCell>
        <mxCell id="2IKahxHPjoitAG6gqW4m-141" value="" style="shape=partialRectangle;html=1;whiteSpace=wrap;collapsible=0;dropTarget=0;pointerEvents=0;fillColor=none;top=0;left=0;bottom=0;right=0;points=[[0,0.5],[1,0.5]];portConstraint=eastwest;" parent="2IKahxHPjoitAG6gqW4m-127" vertex="1">
          <mxGeometry y="180" width="130" height="30" as="geometry" />
        </mxCell>
        <mxCell id="2IKahxHPjoitAG6gqW4m-142" value="" style="shape=partialRectangle;html=1;whiteSpace=wrap;connectable=0;fillColor=none;top=0;left=0;bottom=0;right=0;overflow=hidden;" parent="2IKahxHPjoitAG6gqW4m-141" vertex="1">
          <mxGeometry width="29" height="30" as="geometry" />
        </mxCell>
        <mxCell id="2IKahxHPjoitAG6gqW4m-143" value="img" style="shape=partialRectangle;html=1;whiteSpace=wrap;connectable=0;fillColor=none;top=0;left=0;bottom=0;right=0;align=left;spacingLeft=6;overflow=hidden;" parent="2IKahxHPjoitAG6gqW4m-141" vertex="1">
          <mxGeometry x="29" width="101" height="30" as="geometry" />
        </mxCell>
        <mxCell id="2IKahxHPjoitAG6gqW4m-160" value="" style="shape=partialRectangle;html=1;whiteSpace=wrap;collapsible=0;dropTarget=0;pointerEvents=0;fillColor=none;top=0;left=0;bottom=0;right=0;points=[[0,0.5],[1,0.5]];portConstraint=eastwest;" parent="2IKahxHPjoitAG6gqW4m-127" vertex="1">
          <mxGeometry y="210" width="130" height="30" as="geometry" />
        </mxCell>
        <mxCell id="2IKahxHPjoitAG6gqW4m-161" value="" style="shape=partialRectangle;html=1;whiteSpace=wrap;connectable=0;fillColor=none;top=0;left=0;bottom=0;right=0;overflow=hidden;" parent="2IKahxHPjoitAG6gqW4m-160" vertex="1">
          <mxGeometry width="29" height="30" as="geometry" />
        </mxCell>
        <mxCell id="2IKahxHPjoitAG6gqW4m-162" value="password" style="shape=partialRectangle;html=1;whiteSpace=wrap;connectable=0;fillColor=none;top=0;left=0;bottom=0;right=0;align=left;spacingLeft=6;overflow=hidden;" parent="2IKahxHPjoitAG6gqW4m-160" vertex="1">
          <mxGeometry x="29" width="101" height="30" as="geometry" />
        </mxCell>
        <mxCell id="2IKahxHPjoitAG6gqW4m-166" value="" style="shape=partialRectangle;html=1;whiteSpace=wrap;collapsible=0;dropTarget=0;pointerEvents=0;fillColor=none;top=0;left=0;bottom=0;right=0;points=[[0,0.5],[1,0.5]];portConstraint=eastwest;" parent="2IKahxHPjoitAG6gqW4m-127" vertex="1">
          <mxGeometry y="240" width="130" height="30" as="geometry" />
        </mxCell>
        <mxCell id="2IKahxHPjoitAG6gqW4m-167" value="" style="shape=partialRectangle;html=1;whiteSpace=wrap;connectable=0;fillColor=none;top=0;left=0;bottom=0;right=0;overflow=hidden;" parent="2IKahxHPjoitAG6gqW4m-166" vertex="1">
          <mxGeometry width="29" height="30" as="geometry" />
        </mxCell>
        <mxCell id="2IKahxHPjoitAG6gqW4m-168" value="location_id" style="shape=partialRectangle;html=1;whiteSpace=wrap;connectable=0;fillColor=none;top=0;left=0;bottom=0;right=0;align=left;spacingLeft=6;overflow=hidden;" parent="2IKahxHPjoitAG6gqW4m-166" vertex="1">
          <mxGeometry x="29" width="101" height="30" as="geometry" />
        </mxCell>
        <mxCell id="2IKahxHPjoitAG6gqW4m-163" value="" style="shape=partialRectangle;html=1;whiteSpace=wrap;collapsible=0;dropTarget=0;pointerEvents=0;fillColor=none;top=0;left=0;bottom=0;right=0;points=[[0,0.5],[1,0.5]];portConstraint=eastwest;" parent="2IKahxHPjoitAG6gqW4m-127" vertex="1">
          <mxGeometry y="270" width="130" height="30" as="geometry" />
        </mxCell>
        <mxCell id="2IKahxHPjoitAG6gqW4m-164" value="" style="shape=partialRectangle;html=1;whiteSpace=wrap;connectable=0;fillColor=none;top=0;left=0;bottom=0;right=0;overflow=hidden;" parent="2IKahxHPjoitAG6gqW4m-163" vertex="1">
          <mxGeometry width="29" height="30" as="geometry" />
        </mxCell>
        <mxCell id="2IKahxHPjoitAG6gqW4m-165" value="user_type_id" style="shape=partialRectangle;html=1;whiteSpace=wrap;connectable=0;fillColor=none;top=0;left=0;bottom=0;right=0;align=left;spacingLeft=6;overflow=hidden;" parent="2IKahxHPjoitAG6gqW4m-163" vertex="1">
          <mxGeometry x="29" width="101" height="30" as="geometry" />
        </mxCell>
        <mxCell id="2IKahxHPjoitAG6gqW4m-169" value="product" style="shape=table;html=1;whiteSpace=wrap;startSize=30;container=1;collapsible=0;childLayout=tableLayout;fixedRows=1;rowLines=0;fontStyle=1;align=center;rounded=0;shadow=0;sketch=0;" parent="WIyWlLk6GJQsqaUBKTNV-1" vertex="1">
          <mxGeometry x="450" y="225" width="127" height="210" as="geometry" />
        </mxCell>
        <mxCell id="2IKahxHPjoitAG6gqW4m-170" value="" style="shape=partialRectangle;html=1;whiteSpace=wrap;collapsible=0;dropTarget=0;pointerEvents=0;fillColor=none;top=0;left=0;bottom=1;right=0;points=[[0,0.5],[1,0.5]];portConstraint=eastwest;" parent="2IKahxHPjoitAG6gqW4m-169" vertex="1">
          <mxGeometry y="30" width="127" height="30" as="geometry" />
        </mxCell>
        <mxCell id="2IKahxHPjoitAG6gqW4m-171" value="pk" style="shape=partialRectangle;html=1;whiteSpace=wrap;connectable=0;fillColor=none;top=0;left=0;bottom=0;right=0;overflow=hidden;" parent="2IKahxHPjoitAG6gqW4m-170" vertex="1">
          <mxGeometry width="29" height="30" as="geometry" />
        </mxCell>
        <mxCell id="2IKahxHPjoitAG6gqW4m-172" value="id" style="shape=partialRectangle;html=1;whiteSpace=wrap;connectable=0;fillColor=none;top=0;left=0;bottom=0;right=0;align=left;spacingLeft=6;overflow=hidden;" parent="2IKahxHPjoitAG6gqW4m-170" vertex="1">
          <mxGeometry x="29" width="98" height="30" as="geometry" />
        </mxCell>
        <mxCell id="2IKahxHPjoitAG6gqW4m-173" value="" style="shape=partialRectangle;html=1;whiteSpace=wrap;collapsible=0;dropTarget=0;pointerEvents=0;fillColor=none;top=0;left=0;bottom=0;right=0;points=[[0,0.5],[1,0.5]];portConstraint=eastwest;" parent="2IKahxHPjoitAG6gqW4m-169" vertex="1">
          <mxGeometry y="60" width="127" height="30" as="geometry" />
        </mxCell>
        <mxCell id="2IKahxHPjoitAG6gqW4m-174" value="" style="shape=partialRectangle;html=1;whiteSpace=wrap;connectable=0;fillColor=none;top=0;left=0;bottom=0;right=0;overflow=hidden;" parent="2IKahxHPjoitAG6gqW4m-173" vertex="1">
          <mxGeometry width="29" height="30" as="geometry" />
        </mxCell>
        <mxCell id="2IKahxHPjoitAG6gqW4m-175" value="name" style="shape=partialRectangle;html=1;whiteSpace=wrap;connectable=0;fillColor=none;top=0;left=0;bottom=0;right=0;align=left;spacingLeft=6;overflow=hidden;" parent="2IKahxHPjoitAG6gqW4m-173" vertex="1">
          <mxGeometry x="29" width="98" height="30" as="geometry" />
        </mxCell>
        <mxCell id="2IKahxHPjoitAG6gqW4m-176" value="" style="shape=partialRectangle;html=1;whiteSpace=wrap;collapsible=0;dropTarget=0;pointerEvents=0;fillColor=none;top=0;left=0;bottom=0;right=0;points=[[0,0.5],[1,0.5]];portConstraint=eastwest;" parent="2IKahxHPjoitAG6gqW4m-169" vertex="1">
          <mxGeometry y="90" width="127" height="30" as="geometry" />
        </mxCell>
        <mxCell id="2IKahxHPjoitAG6gqW4m-177" value="" style="shape=partialRectangle;html=1;whiteSpace=wrap;connectable=0;fillColor=none;top=0;left=0;bottom=0;right=0;overflow=hidden;" parent="2IKahxHPjoitAG6gqW4m-176" vertex="1">
          <mxGeometry width="29" height="30" as="geometry" />
        </mxCell>
        <mxCell id="2IKahxHPjoitAG6gqW4m-178" value="description" style="shape=partialRectangle;html=1;whiteSpace=wrap;connectable=0;fillColor=none;top=0;left=0;bottom=0;right=0;align=left;spacingLeft=6;overflow=hidden;" parent="2IKahxHPjoitAG6gqW4m-176" vertex="1">
          <mxGeometry x="29" width="98" height="30" as="geometry" />
        </mxCell>
        <mxCell id="2IKahxHPjoitAG6gqW4m-179" value="" style="shape=partialRectangle;html=1;whiteSpace=wrap;collapsible=0;dropTarget=0;pointerEvents=0;fillColor=none;top=0;left=0;bottom=0;right=0;points=[[0,0.5],[1,0.5]];portConstraint=eastwest;" parent="2IKahxHPjoitAG6gqW4m-169" vertex="1">
          <mxGeometry y="120" width="127" height="30" as="geometry" />
        </mxCell>
        <mxCell id="2IKahxHPjoitAG6gqW4m-180" value="" style="shape=partialRectangle;html=1;whiteSpace=wrap;connectable=0;fillColor=none;top=0;left=0;bottom=0;right=0;overflow=hidden;" parent="2IKahxHPjoitAG6gqW4m-179" vertex="1">
          <mxGeometry width="29" height="30" as="geometry" />
        </mxCell>
        <mxCell id="2IKahxHPjoitAG6gqW4m-181" value="image" style="shape=partialRectangle;html=1;whiteSpace=wrap;connectable=0;fillColor=none;top=0;left=0;bottom=0;right=0;align=left;spacingLeft=6;overflow=hidden;" parent="2IKahxHPjoitAG6gqW4m-179" vertex="1">
          <mxGeometry x="29" width="98" height="30" as="geometry" />
        </mxCell>
        <mxCell id="2IKahxHPjoitAG6gqW4m-185" value="" style="shape=partialRectangle;html=1;whiteSpace=wrap;collapsible=0;dropTarget=0;pointerEvents=0;fillColor=none;top=0;left=0;bottom=0;right=0;points=[[0,0.5],[1,0.5]];portConstraint=eastwest;" parent="2IKahxHPjoitAG6gqW4m-169" vertex="1">
          <mxGeometry y="150" width="127" height="30" as="geometry" />
        </mxCell>
        <mxCell id="2IKahxHPjoitAG6gqW4m-186" value="" style="shape=partialRectangle;html=1;whiteSpace=wrap;connectable=0;fillColor=none;top=0;left=0;bottom=0;right=0;overflow=hidden;" parent="2IKahxHPjoitAG6gqW4m-185" vertex="1">
          <mxGeometry width="29" height="30" as="geometry" />
        </mxCell>
        <mxCell id="2IKahxHPjoitAG6gqW4m-187" value="price" style="shape=partialRectangle;html=1;whiteSpace=wrap;connectable=0;fillColor=none;top=0;left=0;bottom=0;right=0;align=left;spacingLeft=6;overflow=hidden;" parent="2IKahxHPjoitAG6gqW4m-185" vertex="1">
          <mxGeometry x="29" width="98" height="30" as="geometry" />
        </mxCell>
        <mxCell id="2IKahxHPjoitAG6gqW4m-188" value="" style="shape=partialRectangle;html=1;whiteSpace=wrap;collapsible=0;dropTarget=0;pointerEvents=0;fillColor=none;top=0;left=0;bottom=0;right=0;points=[[0,0.5],[1,0.5]];portConstraint=eastwest;" parent="2IKahxHPjoitAG6gqW4m-169" vertex="1">
          <mxGeometry y="180" width="127" height="30" as="geometry" />
        </mxCell>
        <mxCell id="2IKahxHPjoitAG6gqW4m-189" value="" style="shape=partialRectangle;html=1;whiteSpace=wrap;connectable=0;fillColor=none;top=0;left=0;bottom=0;right=0;overflow=hidden;" parent="2IKahxHPjoitAG6gqW4m-188" vertex="1">
          <mxGeometry width="29" height="30" as="geometry" />
        </mxCell>
        <mxCell id="2IKahxHPjoitAG6gqW4m-190" value="category_id" style="shape=partialRectangle;html=1;whiteSpace=wrap;connectable=0;fillColor=none;top=0;left=0;bottom=0;right=0;align=left;spacingLeft=6;overflow=hidden;" parent="2IKahxHPjoitAG6gqW4m-188" vertex="1">
          <mxGeometry x="29" width="98" height="30" as="geometry" />
        </mxCell>
        <mxCell id="2IKahxHPjoitAG6gqW4m-197" value="location" style="shape=table;html=1;whiteSpace=wrap;startSize=30;container=1;collapsible=0;childLayout=tableLayout;fixedRows=1;rowLines=0;fontStyle=1;align=center;rounded=0;shadow=0;sketch=0;" parent="WIyWlLk6GJQsqaUBKTNV-1" vertex="1">
          <mxGeometry x="40" y="30" width="130" height="270" as="geometry" />
        </mxCell>
        <mxCell id="2IKahxHPjoitAG6gqW4m-198" value="" style="shape=partialRectangle;html=1;whiteSpace=wrap;collapsible=0;dropTarget=0;pointerEvents=0;fillColor=none;top=0;left=0;bottom=1;right=0;points=[[0,0.5],[1,0.5]];portConstraint=eastwest;" parent="2IKahxHPjoitAG6gqW4m-197" vertex="1">
          <mxGeometry y="30" width="130" height="30" as="geometry" />
        </mxCell>
        <mxCell id="2IKahxHPjoitAG6gqW4m-199" value="pk" style="shape=partialRectangle;html=1;whiteSpace=wrap;connectable=0;fillColor=none;top=0;left=0;bottom=0;right=0;overflow=hidden;" parent="2IKahxHPjoitAG6gqW4m-198" vertex="1">
          <mxGeometry width="29" height="30" as="geometry" />
        </mxCell>
        <mxCell id="2IKahxHPjoitAG6gqW4m-200" value="id" style="shape=partialRectangle;html=1;whiteSpace=wrap;connectable=0;fillColor=none;top=0;left=0;bottom=0;right=0;align=left;spacingLeft=6;overflow=hidden;" parent="2IKahxHPjoitAG6gqW4m-198" vertex="1">
          <mxGeometry x="29" width="101" height="30" as="geometry" />
        </mxCell>
        <mxCell id="2IKahxHPjoitAG6gqW4m-201" value="" style="shape=partialRectangle;html=1;whiteSpace=wrap;collapsible=0;dropTarget=0;pointerEvents=0;fillColor=none;top=0;left=0;bottom=0;right=0;points=[[0,0.5],[1,0.5]];portConstraint=eastwest;" parent="2IKahxHPjoitAG6gqW4m-197" vertex="1">
          <mxGeometry y="60" width="130" height="30" as="geometry" />
        </mxCell>
        <mxCell id="2IKahxHPjoitAG6gqW4m-202" value="" style="shape=partialRectangle;html=1;whiteSpace=wrap;connectable=0;fillColor=none;top=0;left=0;bottom=0;right=0;overflow=hidden;" parent="2IKahxHPjoitAG6gqW4m-201" vertex="1">
          <mxGeometry width="29" height="30" as="geometry" />
        </mxCell>
        <mxCell id="2IKahxHPjoitAG6gqW4m-203" value="street" style="shape=partialRectangle;html=1;whiteSpace=wrap;connectable=0;fillColor=none;top=0;left=0;bottom=0;right=0;align=left;spacingLeft=6;overflow=hidden;" parent="2IKahxHPjoitAG6gqW4m-201" vertex="1">
          <mxGeometry x="29" width="101" height="30" as="geometry" />
        </mxCell>
        <mxCell id="2IKahxHPjoitAG6gqW4m-204" value="" style="shape=partialRectangle;html=1;whiteSpace=wrap;collapsible=0;dropTarget=0;pointerEvents=0;fillColor=none;top=0;left=0;bottom=0;right=0;points=[[0,0.5],[1,0.5]];portConstraint=eastwest;" parent="2IKahxHPjoitAG6gqW4m-197" vertex="1">
          <mxGeometry y="90" width="130" height="30" as="geometry" />
        </mxCell>
        <mxCell id="2IKahxHPjoitAG6gqW4m-205" value="" style="shape=partialRectangle;html=1;whiteSpace=wrap;connectable=0;fillColor=none;top=0;left=0;bottom=0;right=0;overflow=hidden;" parent="2IKahxHPjoitAG6gqW4m-204" vertex="1">
          <mxGeometry width="29" height="30" as="geometry" />
        </mxCell>
        <mxCell id="2IKahxHPjoitAG6gqW4m-206" value="street_number" style="shape=partialRectangle;html=1;whiteSpace=wrap;connectable=0;fillColor=none;top=0;left=0;bottom=0;right=0;align=left;spacingLeft=6;overflow=hidden;" parent="2IKahxHPjoitAG6gqW4m-204" vertex="1">
          <mxGeometry x="29" width="101" height="30" as="geometry" />
        </mxCell>
        <mxCell id="2IKahxHPjoitAG6gqW4m-207" value="" style="shape=partialRectangle;html=1;whiteSpace=wrap;collapsible=0;dropTarget=0;pointerEvents=0;fillColor=none;top=0;left=0;bottom=0;right=0;points=[[0,0.5],[1,0.5]];portConstraint=eastwest;" parent="2IKahxHPjoitAG6gqW4m-197" vertex="1">
          <mxGeometry y="120" width="130" height="30" as="geometry" />
        </mxCell>
        <mxCell id="2IKahxHPjoitAG6gqW4m-208" value="" style="shape=partialRectangle;html=1;whiteSpace=wrap;connectable=0;fillColor=none;top=0;left=0;bottom=0;right=0;overflow=hidden;" parent="2IKahxHPjoitAG6gqW4m-207" vertex="1">
          <mxGeometry width="29" height="30" as="geometry" />
        </mxCell>
        <mxCell id="2IKahxHPjoitAG6gqW4m-209" value="flat" style="shape=partialRectangle;html=1;whiteSpace=wrap;connectable=0;fillColor=none;top=0;left=0;bottom=0;right=0;align=left;spacingLeft=6;overflow=hidden;" parent="2IKahxHPjoitAG6gqW4m-207" vertex="1">
          <mxGeometry x="29" width="101" height="30" as="geometry" />
        </mxCell>
        <mxCell id="2IKahxHPjoitAG6gqW4m-210" value="" style="shape=partialRectangle;html=1;whiteSpace=wrap;collapsible=0;dropTarget=0;pointerEvents=0;fillColor=none;top=0;left=0;bottom=0;right=0;points=[[0,0.5],[1,0.5]];portConstraint=eastwest;" parent="2IKahxHPjoitAG6gqW4m-197" vertex="1">
          <mxGeometry y="150" width="130" height="30" as="geometry" />
        </mxCell>
        <mxCell id="2IKahxHPjoitAG6gqW4m-211" value="" style="shape=partialRectangle;html=1;whiteSpace=wrap;connectable=0;fillColor=none;top=0;left=0;bottom=0;right=0;overflow=hidden;" parent="2IKahxHPjoitAG6gqW4m-210" vertex="1">
          <mxGeometry width="29" height="30" as="geometry" />
        </mxCell>
        <mxCell id="2IKahxHPjoitAG6gqW4m-212" value="postal_code" style="shape=partialRectangle;html=1;whiteSpace=wrap;connectable=0;fillColor=none;top=0;left=0;bottom=0;right=0;align=left;spacingLeft=6;overflow=hidden;" parent="2IKahxHPjoitAG6gqW4m-210" vertex="1">
          <mxGeometry x="29" width="101" height="30" as="geometry" />
        </mxCell>
        <mxCell id="2IKahxHPjoitAG6gqW4m-213" value="" style="shape=partialRectangle;html=1;whiteSpace=wrap;collapsible=0;dropTarget=0;pointerEvents=0;fillColor=none;top=0;left=0;bottom=0;right=0;points=[[0,0.5],[1,0.5]];portConstraint=eastwest;" parent="2IKahxHPjoitAG6gqW4m-197" vertex="1">
          <mxGeometry y="180" width="130" height="30" as="geometry" />
        </mxCell>
        <mxCell id="2IKahxHPjoitAG6gqW4m-214" value="" style="shape=partialRectangle;html=1;whiteSpace=wrap;connectable=0;fillColor=none;top=0;left=0;bottom=0;right=0;overflow=hidden;" parent="2IKahxHPjoitAG6gqW4m-213" vertex="1">
          <mxGeometry width="29" height="30" as="geometry" />
        </mxCell>
        <mxCell id="2IKahxHPjoitAG6gqW4m-215" value="locality" style="shape=partialRectangle;html=1;whiteSpace=wrap;connectable=0;fillColor=none;top=0;left=0;bottom=0;right=0;align=left;spacingLeft=6;overflow=hidden;" parent="2IKahxHPjoitAG6gqW4m-213" vertex="1">
          <mxGeometry x="29" width="101" height="30" as="geometry" />
        </mxCell>
        <mxCell id="2IKahxHPjoitAG6gqW4m-216" value="" style="shape=partialRectangle;html=1;whiteSpace=wrap;collapsible=0;dropTarget=0;pointerEvents=0;fillColor=none;top=0;left=0;bottom=0;right=0;points=[[0,0.5],[1,0.5]];portConstraint=eastwest;" parent="2IKahxHPjoitAG6gqW4m-197" vertex="1">
          <mxGeometry y="210" width="130" height="30" as="geometry" />
        </mxCell>
        <mxCell id="2IKahxHPjoitAG6gqW4m-217" value="" style="shape=partialRectangle;html=1;whiteSpace=wrap;connectable=0;fillColor=none;top=0;left=0;bottom=0;right=0;overflow=hidden;" parent="2IKahxHPjoitAG6gqW4m-216" vertex="1">
          <mxGeometry width="29" height="30" as="geometry" />
        </mxCell>
        <mxCell id="2IKahxHPjoitAG6gqW4m-218" value="state" style="shape=partialRectangle;html=1;whiteSpace=wrap;connectable=0;fillColor=none;top=0;left=0;bottom=0;right=0;align=left;spacingLeft=6;overflow=hidden;" parent="2IKahxHPjoitAG6gqW4m-216" vertex="1">
          <mxGeometry x="29" width="101" height="30" as="geometry" />
        </mxCell>
        <mxCell id="2IKahxHPjoitAG6gqW4m-219" value="" style="shape=partialRectangle;html=1;whiteSpace=wrap;collapsible=0;dropTarget=0;pointerEvents=0;fillColor=none;top=0;left=0;bottom=0;right=0;points=[[0,0.5],[1,0.5]];portConstraint=eastwest;" parent="2IKahxHPjoitAG6gqW4m-197" vertex="1">
          <mxGeometry y="240" width="130" height="30" as="geometry" />
        </mxCell>
        <mxCell id="2IKahxHPjoitAG6gqW4m-220" value="" style="shape=partialRectangle;html=1;whiteSpace=wrap;connectable=0;fillColor=none;top=0;left=0;bottom=0;right=0;overflow=hidden;" parent="2IKahxHPjoitAG6gqW4m-219" vertex="1">
          <mxGeometry width="29" height="30" as="geometry" />
        </mxCell>
        <mxCell id="2IKahxHPjoitAG6gqW4m-221" value="country" style="shape=partialRectangle;html=1;whiteSpace=wrap;connectable=0;fillColor=none;top=0;left=0;bottom=0;right=0;align=left;spacingLeft=6;overflow=hidden;" parent="2IKahxHPjoitAG6gqW4m-219" vertex="1">
          <mxGeometry x="29" width="101" height="30" as="geometry" />
        </mxCell>
        <mxCell id="2IKahxHPjoitAG6gqW4m-228" value="category" style="shape=table;html=1;whiteSpace=wrap;startSize=30;container=1;collapsible=0;childLayout=tableLayout;fixedRows=1;rowLines=0;fontStyle=1;align=center;rounded=0;shadow=0;sketch=0;" parent="WIyWlLk6GJQsqaUBKTNV-1" vertex="1">
          <mxGeometry x="233" y="345" width="127" height="90" as="geometry" />
        </mxCell>
        <mxCell id="2IKahxHPjoitAG6gqW4m-229" value="" style="shape=partialRectangle;html=1;whiteSpace=wrap;collapsible=0;dropTarget=0;pointerEvents=0;fillColor=none;top=0;left=0;bottom=1;right=0;points=[[0,0.5],[1,0.5]];portConstraint=eastwest;" parent="2IKahxHPjoitAG6gqW4m-228" vertex="1">
          <mxGeometry y="30" width="127" height="30" as="geometry" />
        </mxCell>
        <mxCell id="2IKahxHPjoitAG6gqW4m-230" value="pk" style="shape=partialRectangle;html=1;whiteSpace=wrap;connectable=0;fillColor=none;top=0;left=0;bottom=0;right=0;overflow=hidden;" parent="2IKahxHPjoitAG6gqW4m-229" vertex="1">
          <mxGeometry width="29" height="30" as="geometry" />
        </mxCell>
        <mxCell id="2IKahxHPjoitAG6gqW4m-231" value="id" style="shape=partialRectangle;html=1;whiteSpace=wrap;connectable=0;fillColor=none;top=0;left=0;bottom=0;right=0;align=left;spacingLeft=6;overflow=hidden;" parent="2IKahxHPjoitAG6gqW4m-229" vertex="1">
          <mxGeometry x="29" width="98" height="30" as="geometry" />
        </mxCell>
        <mxCell id="2IKahxHPjoitAG6gqW4m-232" value="" style="shape=partialRectangle;html=1;whiteSpace=wrap;collapsible=0;dropTarget=0;pointerEvents=0;fillColor=none;top=0;left=0;bottom=0;right=0;points=[[0,0.5],[1,0.5]];portConstraint=eastwest;" parent="2IKahxHPjoitAG6gqW4m-228" vertex="1">
          <mxGeometry y="60" width="127" height="30" as="geometry" />
        </mxCell>
        <mxCell id="2IKahxHPjoitAG6gqW4m-233" value="" style="shape=partialRectangle;html=1;whiteSpace=wrap;connectable=0;fillColor=none;top=0;left=0;bottom=0;right=0;overflow=hidden;" parent="2IKahxHPjoitAG6gqW4m-232" vertex="1">
          <mxGeometry width="29" height="30" as="geometry" />
        </mxCell>
        <mxCell id="2IKahxHPjoitAG6gqW4m-234" value="name" style="shape=partialRectangle;html=1;whiteSpace=wrap;connectable=0;fillColor=none;top=0;left=0;bottom=0;right=0;align=left;spacingLeft=6;overflow=hidden;" parent="2IKahxHPjoitAG6gqW4m-232" vertex="1">
          <mxGeometry x="29" width="98" height="30" as="geometry" />
        </mxCell>
        <mxCell id="2IKahxHPjoitAG6gqW4m-250" value="cart" style="shape=table;html=1;whiteSpace=wrap;startSize=30;container=1;collapsible=0;childLayout=tableLayout;fixedRows=1;rowLines=0;fontStyle=1;align=center;rounded=0;shadow=0;sketch=0;" parent="WIyWlLk6GJQsqaUBKTNV-1" vertex="1">
          <mxGeometry x="450" y="30" width="127" height="180" as="geometry" />
        </mxCell>
        <mxCell id="2IKahxHPjoitAG6gqW4m-251" value="" style="shape=partialRectangle;html=1;whiteSpace=wrap;collapsible=0;dropTarget=0;pointerEvents=0;fillColor=none;top=0;left=0;bottom=1;right=0;points=[[0,0.5],[1,0.5]];portConstraint=eastwest;" parent="2IKahxHPjoitAG6gqW4m-250" vertex="1">
          <mxGeometry y="30" width="127" height="30" as="geometry" />
        </mxCell>
        <mxCell id="2IKahxHPjoitAG6gqW4m-252" value="pk" style="shape=partialRectangle;html=1;whiteSpace=wrap;connectable=0;fillColor=none;top=0;left=0;bottom=0;right=0;overflow=hidden;" parent="2IKahxHPjoitAG6gqW4m-251" vertex="1">
          <mxGeometry width="29" height="30" as="geometry" />
        </mxCell>
        <mxCell id="2IKahxHPjoitAG6gqW4m-253" value="id" style="shape=partialRectangle;html=1;whiteSpace=wrap;connectable=0;fillColor=none;top=0;left=0;bottom=0;right=0;align=left;spacingLeft=6;overflow=hidden;" parent="2IKahxHPjoitAG6gqW4m-251" vertex="1">
          <mxGeometry x="29" width="98" height="30" as="geometry" />
        </mxCell>
        <mxCell id="2IKahxHPjoitAG6gqW4m-254" value="" style="shape=partialRectangle;html=1;whiteSpace=wrap;collapsible=0;dropTarget=0;pointerEvents=0;fillColor=none;top=0;left=0;bottom=0;right=0;points=[[0,0.5],[1,0.5]];portConstraint=eastwest;" parent="2IKahxHPjoitAG6gqW4m-250" vertex="1">
          <mxGeometry y="60" width="127" height="30" as="geometry" />
        </mxCell>
        <mxCell id="2IKahxHPjoitAG6gqW4m-255" value="" style="shape=partialRectangle;html=1;whiteSpace=wrap;connectable=0;fillColor=none;top=0;left=0;bottom=0;right=0;overflow=hidden;" parent="2IKahxHPjoitAG6gqW4m-254" vertex="1">
          <mxGeometry width="29" height="30" as="geometry" />
        </mxCell>
        <mxCell id="2IKahxHPjoitAG6gqW4m-256" value="user_id" style="shape=partialRectangle;html=1;whiteSpace=wrap;connectable=0;fillColor=none;top=0;left=0;bottom=0;right=0;align=left;spacingLeft=6;overflow=hidden;" parent="2IKahxHPjoitAG6gqW4m-254" vertex="1">
          <mxGeometry x="29" width="98" height="30" as="geometry" />
        </mxCell>
        <mxCell id="2IKahxHPjoitAG6gqW4m-257" value="" style="shape=partialRectangle;html=1;whiteSpace=wrap;collapsible=0;dropTarget=0;pointerEvents=0;fillColor=none;top=0;left=0;bottom=0;right=0;points=[[0,0.5],[1,0.5]];portConstraint=eastwest;" parent="2IKahxHPjoitAG6gqW4m-250" vertex="1">
          <mxGeometry y="90" width="127" height="30" as="geometry" />
        </mxCell>
        <mxCell id="2IKahxHPjoitAG6gqW4m-258" value="" style="shape=partialRectangle;html=1;whiteSpace=wrap;connectable=0;fillColor=none;top=0;left=0;bottom=0;right=0;overflow=hidden;" parent="2IKahxHPjoitAG6gqW4m-257" vertex="1">
          <mxGeometry width="29" height="30" as="geometry" />
        </mxCell>
        <mxCell id="2IKahxHPjoitAG6gqW4m-259" value="total_price" style="shape=partialRectangle;html=1;whiteSpace=wrap;connectable=0;fillColor=none;top=0;left=0;bottom=0;right=0;align=left;spacingLeft=6;overflow=hidden;" parent="2IKahxHPjoitAG6gqW4m-257" vertex="1">
          <mxGeometry x="29" width="98" height="30" as="geometry" />
        </mxCell>
        <mxCell id="2IKahxHPjoitAG6gqW4m-260" value="" style="shape=partialRectangle;html=1;whiteSpace=wrap;collapsible=0;dropTarget=0;pointerEvents=0;fillColor=none;top=0;left=0;bottom=0;right=0;points=[[0,0.5],[1,0.5]];portConstraint=eastwest;" parent="2IKahxHPjoitAG6gqW4m-250" vertex="1">
          <mxGeometry y="120" width="127" height="30" as="geometry" />
        </mxCell>
        <mxCell id="2IKahxHPjoitAG6gqW4m-261" value="" style="shape=partialRectangle;html=1;whiteSpace=wrap;connectable=0;fillColor=none;top=0;left=0;bottom=0;right=0;overflow=hidden;" parent="2IKahxHPjoitAG6gqW4m-260" vertex="1">
          <mxGeometry width="29" height="30" as="geometry" />
        </mxCell>
        <mxCell id="2IKahxHPjoitAG6gqW4m-262" value="total_items" style="shape=partialRectangle;html=1;whiteSpace=wrap;connectable=0;fillColor=none;top=0;left=0;bottom=0;right=0;align=left;spacingLeft=6;overflow=hidden;" parent="2IKahxHPjoitAG6gqW4m-260" vertex="1">
          <mxGeometry x="29" width="98" height="30" as="geometry" />
        </mxCell>
        <mxCell id="2IKahxHPjoitAG6gqW4m-263" value="" style="shape=partialRectangle;html=1;whiteSpace=wrap;collapsible=0;dropTarget=0;pointerEvents=0;fillColor=none;top=0;left=0;bottom=0;right=0;points=[[0,0.5],[1,0.5]];portConstraint=eastwest;" parent="2IKahxHPjoitAG6gqW4m-250" vertex="1">
          <mxGeometry y="150" width="127" height="30" as="geometry" />
        </mxCell>
        <mxCell id="2IKahxHPjoitAG6gqW4m-264" value="" style="shape=partialRectangle;html=1;whiteSpace=wrap;connectable=0;fillColor=none;top=0;left=0;bottom=0;right=0;overflow=hidden;" parent="2IKahxHPjoitAG6gqW4m-263" vertex="1">
          <mxGeometry width="29" height="30" as="geometry" />
        </mxCell>
        <mxCell id="2IKahxHPjoitAG6gqW4m-265" value="product_cart_id" style="shape=partialRectangle;html=1;whiteSpace=wrap;connectable=0;fillColor=none;top=0;left=0;bottom=0;right=0;align=left;spacingLeft=6;overflow=hidden;" parent="2IKahxHPjoitAG6gqW4m-263" vertex="1">
          <mxGeometry x="29" width="98" height="30" as="geometry" />
        </mxCell>
        <mxCell id="2IKahxHPjoitAG6gqW4m-272" value="user_type" style="shape=table;html=1;whiteSpace=wrap;startSize=30;container=1;collapsible=0;childLayout=tableLayout;fixedRows=1;rowLines=0;fontStyle=1;align=center;rounded=0;shadow=0;sketch=0;" parent="WIyWlLk6GJQsqaUBKTNV-1" vertex="1">
          <mxGeometry x="40" y="345" width="127" height="90" as="geometry" />
        </mxCell>
        <mxCell id="2IKahxHPjoitAG6gqW4m-273" value="" style="shape=partialRectangle;html=1;whiteSpace=wrap;collapsible=0;dropTarget=0;pointerEvents=0;fillColor=none;top=0;left=0;bottom=1;right=0;points=[[0,0.5],[1,0.5]];portConstraint=eastwest;" parent="2IKahxHPjoitAG6gqW4m-272" vertex="1">
          <mxGeometry y="30" width="127" height="30" as="geometry" />
        </mxCell>
        <mxCell id="2IKahxHPjoitAG6gqW4m-274" value="pk" style="shape=partialRectangle;html=1;whiteSpace=wrap;connectable=0;fillColor=none;top=0;left=0;bottom=0;right=0;overflow=hidden;" parent="2IKahxHPjoitAG6gqW4m-273" vertex="1">
          <mxGeometry width="29" height="30" as="geometry" />
        </mxCell>
        <mxCell id="2IKahxHPjoitAG6gqW4m-275" value="id" style="shape=partialRectangle;html=1;whiteSpace=wrap;connectable=0;fillColor=none;top=0;left=0;bottom=0;right=0;align=left;spacingLeft=6;overflow=hidden;" parent="2IKahxHPjoitAG6gqW4m-273" vertex="1">
          <mxGeometry x="29" width="98" height="30" as="geometry" />
        </mxCell>
        <mxCell id="2IKahxHPjoitAG6gqW4m-276" value="" style="shape=partialRectangle;html=1;whiteSpace=wrap;collapsible=0;dropTarget=0;pointerEvents=0;fillColor=none;top=0;left=0;bottom=0;right=0;points=[[0,0.5],[1,0.5]];portConstraint=eastwest;" parent="2IKahxHPjoitAG6gqW4m-272" vertex="1">
          <mxGeometry y="60" width="127" height="30" as="geometry" />
        </mxCell>
        <mxCell id="2IKahxHPjoitAG6gqW4m-277" value="" style="shape=partialRectangle;html=1;whiteSpace=wrap;connectable=0;fillColor=none;top=0;left=0;bottom=0;right=0;overflow=hidden;" parent="2IKahxHPjoitAG6gqW4m-276" vertex="1">
          <mxGeometry width="29" height="30" as="geometry" />
        </mxCell>
        <mxCell id="2IKahxHPjoitAG6gqW4m-278" value="name" style="shape=partialRectangle;html=1;whiteSpace=wrap;connectable=0;fillColor=none;top=0;left=0;bottom=0;right=0;align=left;spacingLeft=6;overflow=hidden;" parent="2IKahxHPjoitAG6gqW4m-276" vertex="1">
          <mxGeometry x="29" width="98" height="30" as="geometry" />
        </mxCell>
        <mxCell id="2IKahxHPjoitAG6gqW4m-281" value="product_cart" style="shape=table;html=1;whiteSpace=wrap;startSize=30;container=1;collapsible=0;childLayout=tableLayout;fixedRows=1;rowLines=0;fontStyle=1;align=center;rounded=0;shadow=0;sketch=0;" parent="WIyWlLk6GJQsqaUBKTNV-1" vertex="1">
          <mxGeometry x="650" y="175" width="127" height="120" as="geometry" />
        </mxCell>
        <mxCell id="2IKahxHPjoitAG6gqW4m-282" value="" style="shape=partialRectangle;html=1;whiteSpace=wrap;collapsible=0;dropTarget=0;pointerEvents=0;fillColor=none;top=0;left=0;bottom=1;right=0;points=[[0,0.5],[1,0.5]];portConstraint=eastwest;" parent="2IKahxHPjoitAG6gqW4m-281" vertex="1">
          <mxGeometry y="30" width="127" height="30" as="geometry" />
        </mxCell>
        <mxCell id="2IKahxHPjoitAG6gqW4m-283" value="pk" style="shape=partialRectangle;html=1;whiteSpace=wrap;connectable=0;fillColor=none;top=0;left=0;bottom=0;right=0;overflow=hidden;" parent="2IKahxHPjoitAG6gqW4m-282" vertex="1">
          <mxGeometry width="29" height="30" as="geometry" />
        </mxCell>
        <mxCell id="2IKahxHPjoitAG6gqW4m-284" value="id" style="shape=partialRectangle;html=1;whiteSpace=wrap;connectable=0;fillColor=none;top=0;left=0;bottom=0;right=0;align=left;spacingLeft=6;overflow=hidden;" parent="2IKahxHPjoitAG6gqW4m-282" vertex="1">
          <mxGeometry x="29" width="98" height="30" as="geometry" />
        </mxCell>
        <mxCell id="2IKahxHPjoitAG6gqW4m-285" value="" style="shape=partialRectangle;html=1;whiteSpace=wrap;collapsible=0;dropTarget=0;pointerEvents=0;fillColor=none;top=0;left=0;bottom=0;right=0;points=[[0,0.5],[1,0.5]];portConstraint=eastwest;" parent="2IKahxHPjoitAG6gqW4m-281" vertex="1">
          <mxGeometry y="60" width="127" height="30" as="geometry" />
        </mxCell>
        <mxCell id="2IKahxHPjoitAG6gqW4m-286" value="" style="shape=partialRectangle;html=1;whiteSpace=wrap;connectable=0;fillColor=none;top=0;left=0;bottom=0;right=0;overflow=hidden;" parent="2IKahxHPjoitAG6gqW4m-285" vertex="1">
          <mxGeometry width="29" height="30" as="geometry" />
        </mxCell>
        <mxCell id="2IKahxHPjoitAG6gqW4m-287" value="product_id" style="shape=partialRectangle;html=1;whiteSpace=wrap;connectable=0;fillColor=none;top=0;left=0;bottom=0;right=0;align=left;spacingLeft=6;overflow=hidden;" parent="2IKahxHPjoitAG6gqW4m-285" vertex="1">
          <mxGeometry x="29" width="98" height="30" as="geometry" />
        </mxCell>
        <mxCell id="2IKahxHPjoitAG6gqW4m-294" value="" style="shape=partialRectangle;html=1;whiteSpace=wrap;collapsible=0;dropTarget=0;pointerEvents=0;fillColor=none;top=0;left=0;bottom=0;right=0;points=[[0,0.5],[1,0.5]];portConstraint=eastwest;" parent="2IKahxHPjoitAG6gqW4m-281" vertex="1">
          <mxGeometry y="90" width="127" height="30" as="geometry" />
        </mxCell>
        <mxCell id="2IKahxHPjoitAG6gqW4m-295" value="" style="shape=partialRectangle;html=1;whiteSpace=wrap;connectable=0;fillColor=none;top=0;left=0;bottom=0;right=0;overflow=hidden;" parent="2IKahxHPjoitAG6gqW4m-294" vertex="1">
          <mxGeometry width="29" height="30" as="geometry" />
        </mxCell>
        <mxCell id="2IKahxHPjoitAG6gqW4m-296" value="cart_id" style="shape=partialRectangle;html=1;whiteSpace=wrap;connectable=0;fillColor=none;top=0;left=0;bottom=0;right=0;align=left;spacingLeft=6;overflow=hidden;" parent="2IKahxHPjoitAG6gqW4m-294" vertex="1">
          <mxGeometry x="29" width="98" height="30" as="geometry" />
        </mxCell>
        <mxCell id="e5IktkNa6VqiRzod8vBw-5" value="" style="edgeStyle=entityRelationEdgeStyle;fontSize=12;html=1;endArrow=ERoneToMany;startArrow=ERmandOne;exitX=0;exitY=0.5;exitDx=0;exitDy=0;strokeColor=none;" edge="1" parent="WIyWlLk6GJQsqaUBKTNV-1" source="2IKahxHPjoitAG6gqW4m-294">
          <mxGeometry width="100" height="100" relative="1" as="geometry">
            <mxPoint x="650" y="345" as="sourcePoint" />
            <mxPoint x="580" y="250" as="targetPoint" />
          </mxGeometry>
        </mxCell>
        <mxCell id="e5IktkNa6VqiRzod8vBw-7" value="" style="edgeStyle=entityRelationEdgeStyle;fontSize=12;html=1;endArrow=ERoneToMany;" edge="1" parent="WIyWlLk6GJQsqaUBKTNV-1" target="2IKahxHPjoitAG6gqW4m-166">
          <mxGeometry width="100" height="100" relative="1" as="geometry">
            <mxPoint x="170" y="50" as="sourcePoint" />
            <mxPoint x="270" y="-50" as="targetPoint" />
          </mxGeometry>
        </mxCell>
        <mxCell id="e5IktkNa6VqiRzod8vBw-9" value="" style="edgeStyle=entityRelationEdgeStyle;fontSize=12;html=1;endArrow=ERoneToMany;entryX=0;entryY=0.5;entryDx=0;entryDy=0;" edge="1" parent="WIyWlLk6GJQsqaUBKTNV-1" target="2IKahxHPjoitAG6gqW4m-163">
          <mxGeometry width="100" height="100" relative="1" as="geometry">
            <mxPoint x="167" y="360" as="sourcePoint" />
            <mxPoint x="227" y="595" as="targetPoint" />
          </mxGeometry>
        </mxCell>
        <mxCell id="e5IktkNa6VqiRzod8vBw-11" value="" style="edgeStyle=entityRelationEdgeStyle;fontSize=12;html=1;endArrow=ERoneToMany;entryX=0;entryY=0.5;entryDx=0;entryDy=0;" edge="1" parent="WIyWlLk6GJQsqaUBKTNV-1" target="2IKahxHPjoitAG6gqW4m-188">
          <mxGeometry width="100" height="100" relative="1" as="geometry">
            <mxPoint x="360" y="365" as="sourcePoint" />
            <mxPoint x="423" y="320" as="targetPoint" />
          </mxGeometry>
        </mxCell>
        <mxCell id="e5IktkNa6VqiRzod8vBw-14" value="" style="edgeStyle=entityRelationEdgeStyle;fontSize=12;html=1;endArrow=ERoneToMany;entryX=0;entryY=0.5;entryDx=0;entryDy=0;" edge="1" parent="WIyWlLk6GJQsqaUBKTNV-1">
          <mxGeometry width="100" height="100" relative="1" as="geometry">
            <mxPoint x="360" y="50" as="sourcePoint" />
            <mxPoint x="450" y="105" as="targetPoint" />
          </mxGeometry>
        </mxCell>
        <mxCell id="e5IktkNa6VqiRzod8vBw-16" value="" style="edgeStyle=entityRelationEdgeStyle;fontSize=12;html=1;endArrow=ERoneToMany;endFill=0;startArrow=ERoneToMany;startFill=0;" edge="1" parent="WIyWlLk6GJQsqaUBKTNV-1">
          <mxGeometry width="100" height="100" relative="1" as="geometry">
            <mxPoint x="577" y="110" as="sourcePoint" />
            <mxPoint x="650" y="190" as="targetPoint" />
          </mxGeometry>
        </mxCell>
        <mxCell id="e5IktkNa6VqiRzod8vBw-18" value="" style="edgeStyle=entityRelationEdgeStyle;fontSize=12;html=1;endArrow=ERoneToMany;endFill=0;startArrow=ERoneToMany;startFill=0;" edge="1" parent="WIyWlLk6GJQsqaUBKTNV-1">
          <mxGeometry width="100" height="100" relative="1" as="geometry">
            <mxPoint x="577" y="240" as="sourcePoint" />
            <mxPoint x="650" y="190" as="targetPoint" />
          </mxGeometry>
        </mxCell>
      </root>
    </mxGraphModel>
  </diagram>
</mxfile>
